<?xml version="1.0" encoding="UTF-8" standalone="no"?>
<svg
   version="1.1"
   x="0px"
   y="0px"
   viewBox="0 0 80 31.744001"
   xml:space="preserve"
   id="svg25"
   width="80"
   height="31.743999"
   xmlns="http://www.w3.org/2000/svg"
   xmlns:svg="http://www.w3.org/2000/svg"><defs
   id="defs29" />
<style
   type="text/css"
   id="style9">
	.st0{fill:#FFFFFF;}
	.st1{fill:#FFFFFF;}
	.st2{fill:#FFFFFF;}
	.st3{fill:#FFFFFF;}
	.st4{fill:#FFFFFF;}
</style>






<g
   id="g382"
   transform="translate(0.025,-4.2556886)"><path
     class="st0"
     d="M 37.8,19.7 V 29 h -3 V 6 h 7.8 c 1.9,0 3.7,0.7 5.1,2 1.4,1.2 2.1,3 2.1,4.9 0,1.9 -0.7,3.6 -2.1,4.9 -1.4,1.3 -3.1,2 -5.1,2 z m 0,-10.9 v 8 h 5 c 1.1,0 2.2,-0.4 2.9,-1.2 1.6,-1.5 1.6,-4 0.1,-5.5 0,0 -0.1,-0.1 -0.1,-0.1 C 44.9,9.2 43.9,8.7 42.8,8.8 Z"
     id="path11" /><path
     class="st0"
     d="m 56.7,12.8 c 2.2,0 3.9,0.6 5.2,1.8 1.3,1.2 1.9,2.8 1.9,4.8 V 29 H 61 v -2.2 h -0.1 c -1.2,1.8 -2.9,2.7 -4.9,2.7 -1.7,0 -3.2,-0.5 -4.4,-1.5 -1.1,-1 -1.8,-2.4 -1.8,-3.9 0,-1.6 0.6,-2.9 1.8,-3.9 1.2,-1 2.9,-1.4 4.9,-1.4 1.8,0 3.2,0.3 4.3,1 v -0.7 c 0,-1 -0.4,-2 -1.2,-2.6 -0.8,-0.7 -1.8,-1.1 -2.9,-1.1 -1.7,0 -3,0.7 -3.9,2.1 l -2.6,-1.6 c 1.6,-2.1 3.7,-3.1 6.5,-3.1 z m -3.8,11.4 c 0,0.8 0.4,1.5 1,1.9 0.7,0.5 1.5,0.8 2.3,0.8 1.2,0 2.4,-0.5 3.3,-1.4 1,-0.9 1.5,-2 1.5,-3.2 -0.9,-0.7 -2.2,-1.1 -3.9,-1.1 -1.2,0 -2.2,0.3 -3,0.9 -0.8,0.5 -1.2,1.2 -1.2,2.1 z"
     id="path13" /><path
     class="st0"
     d="M 80,13.3 70.1,36 h -3 l 3.7,-7.9 -6.5,-14.7 h 3.2 l 4.7,11.3 h 0.1 L 76.9,13.4 H 80 Z"
     id="path15" /><path
     class="st1"
     d="m 25.9,17.7 c 0,-0.9 -0.1,-1.8 -0.2,-2.7 H 13.2 v 5.1 h 7.1 c -0.3,1.6 -1.2,3.1 -2.6,4 v 3.3 H 22 c 2.5,-2.3 3.9,-5.7 3.9,-9.7 z"
     id="path17" /><path
     class="st2"
     d="m 13.2,30.6 c 3.6,0 6.6,-1.2 8.8,-3.2 l -4.3,-3.3 c -1.2,0.8 -2.7,1.3 -4.5,1.3 -3.4,0 -6.4,-2.3 -7.4,-5.5 H 1.4 v 3.4 c 2.3,4.5 6.8,7.3 11.8,7.3 z"
     id="path19" /><path
     class="st3"
     d="M 5.8,19.9 C 5.2,18.3 5.2,16.5 5.8,14.8 V 11.4 H 1.4 c -1.9,3.7 -1.9,8.1 0,11.9 z"
     id="path21" /><path
     class="st4"
     d="m 13.016794,9.4610687 c 1.9,0 3.7,0.7000003 5.1,2.0000003 v 0 l 3.8,-3.8000003 c -2.4,-2.2 -5.6,-3.5 -8.8,-3.4 -5.0000001,0 -9.6000001,2.8 -11.8000001,7.3000003 l 4.4,3.4 c 0.9,-3.2 3.9,-5.5000003 7.3000001,-5.5000003 z"
     id="path23" /></g>
</svg>
