<?xml version="1.0" encoding="UTF-8" standalone="no"?>
<!-- Generator: Adobe Illustrator 15.0.0, SVG Export Plug-In . SVG Version: 6.00 Build 0)  -->

<svg
   version="1.1"
   id="Layer_1"
   x="0px"
   y="0px"
   width="286.048"
   height="76.224998"
   viewBox="121.565 23.381 286.048 76.225"
   enable-background="new 121.565 23.381 286.048 76.225"
   xml:space="preserve"
   xmlns="http://www.w3.org/2000/svg"
   xmlns:svg="http://www.w3.org/2000/svg"><defs
   id="defs307" />
<g
   id="Layer_1_1_">
	<g
   id="g300">
		<g
   id="g298">
			<g
   id="g296">
				<g
   id="g294">
					<path
   fill="#ffffff"
   d="m 314.585,23.381 h -22.25 c -1.521,0 -2.816,1.107 -3.053,2.609 l -8.998,57.053 c -0.178,1.126 0.691,2.146 1.832,2.146 h 11.416 c 1.064,0 1.973,-0.775 2.137,-1.827 l 2.553,-16.175 c 0.236,-1.503 1.531,-2.609 3.054,-2.609 h 7.041 c 14.655,0 23.113,-7.093 25.324,-21.151 0.995,-6.147 0.04,-10.979 -2.839,-14.36 -3.164,-3.72 -8.773,-5.686 -16.217,-5.686 z m 2.568,20.837 c -1.216,7.987 -7.315,7.987 -13.216,7.987 h -3.355 l 2.354,-14.912 c 0.143,-0.9 0.92,-1.564 1.832,-1.564 h 1.539 c 4.016,0 7.811,0 9.766,2.288 1.169,1.368 1.523,3.397 1.08,6.201 z"
   id="path282" />
					<path
   fill="#ffffff"
   d="m 155.89,23.381 h -22.25 c -1.521,0 -2.816,1.107 -3.054,2.609 l -8.998,57.053 c -0.177,1.126 0.693,2.146 1.833,2.146 h 10.624 c 1.521,0 2.816,-1.107 3.054,-2.61 l 2.428,-15.392 c 0.237,-1.503 1.532,-2.609 3.053,-2.609 h 7.041 c 14.656,0 23.114,-7.093 25.325,-21.151 0.995,-6.147 0.04,-10.979 -2.838,-14.36 -3.167,-3.72 -8.775,-5.686 -16.218,-5.686 z m 2.567,20.837 c -1.216,7.987 -7.316,7.987 -13.215,7.987 h -3.357 l 2.354,-14.912 c 0.143,-0.9 0.919,-1.564 1.832,-1.564 h 1.539 c 4.016,0 7.81,0 9.765,2.288 1.17,1.368 1.524,3.397 1.082,6.201 z"
   id="path284" />
					<path
   fill="#ffffff"
   d="M 222.393,43.963 H 211.74 c -0.912,0 -1.689,0.664 -1.832,1.566 l -0.469,2.979 -0.745,-1.078 c -2.308,-3.351 -7.45,-4.469 -12.585,-4.469 -11.77,0 -21.826,8.92 -23.783,21.432 -1.019,6.24 0.427,12.205 3.966,16.367 3.251,3.825 7.891,5.417 13.419,5.417 9.487,0 14.75,-6.096 14.75,-6.096 l -0.476,2.962 c -0.179,1.126 0.691,2.146 1.832,2.146 h 9.595 c 1.521,0 2.815,-1.107 3.053,-2.609 l 5.761,-36.473 c 0.176,-1.127 -0.693,-2.144 -1.833,-2.144 z m -14.849,20.738 c -1.028,6.088 -5.861,10.174 -12.025,10.174 -3.09,0 -5.564,-0.994 -7.154,-2.875 -1.576,-1.866 -2.169,-4.523 -1.669,-7.483 0.959,-6.033 5.87,-10.252 11.94,-10.252 3.025,0 5.482,1.004 7.103,2.902 1.632,1.913 2.273,4.588 1.805,7.534 z"
   id="path286" />
					<path
   fill="#ffffff"
   d="m 381.089,43.963 h -10.653 c -0.913,0 -1.69,0.664 -1.832,1.566 l -0.47,2.979 -0.744,-1.078 c -2.309,-3.351 -7.45,-4.469 -12.585,-4.469 -11.771,0 -21.826,8.92 -23.782,21.432 -1.02,6.24 0.428,12.205 3.966,16.367 3.251,3.825 7.892,5.417 13.419,5.417 9.487,0 14.75,-6.096 14.75,-6.096 l -0.476,2.962 c -0.179,1.126 0.69,2.146 1.832,2.146 h 9.595 c 1.521,0 2.814,-1.107 3.053,-2.609 l 5.76,-36.473 c 0.178,-1.127 -0.693,-2.144 -1.833,-2.144 z m -14.847,20.738 c -1.029,6.088 -5.861,10.174 -12.025,10.174 -3.092,0 -5.564,-0.994 -7.155,-2.875 -1.575,-1.866 -2.169,-4.523 -1.669,-7.483 0.96,-6.033 5.869,-10.252 11.939,-10.252 3.024,0 5.481,1.004 7.104,2.902 1.63,1.913 2.272,4.588 1.806,7.534 z"
   id="path288" />
					<path
   fill="#ffffff"
   d="M 279.139,43.963 H 268.43 c -1.024,0 -1.981,0.509 -2.558,1.355 L 251.1,67.075 244.839,46.169 c -0.393,-1.309 -1.596,-2.206 -2.961,-2.206 h -10.527 c -1.271,0 -2.165,1.25 -1.756,2.454 l 11.792,34.612 -11.091,15.648 c -0.871,1.229 0.008,2.928 1.514,2.928 h 10.697 c 1.015,0 1.964,-0.497 2.541,-1.33 l 35.615,-51.4 c 0.852,-1.23 -0.029,-2.912 -1.524,-2.912 z"
   id="path290" />
					<path
   fill="#ffffff"
   d="m 393.647,24.948 -9.133,58.097 c -0.177,1.126 0.692,2.145 1.832,2.145 h 9.185 c 1.521,0 2.816,-1.107 3.055,-2.609 l 9.004,-57.053 c 0.178,-1.126 -0.691,-2.145 -1.832,-2.145 H 395.48 c -0.914,-0.002 -1.691,0.663 -1.833,1.565 z"
   id="path292" />
				</g>
			</g>
		</g>
	</g>
</g>
<g
   id="Layer_2">
</g>
</svg>
